<?xml version="1.0" encoding="UTF-8" ?>
<svg version="1.1" width="3200" height="3200" xmlns="http://www.w3.org/2000/svg" shape-rendering="crispEdges">
<rect x="1400" y="500" width="100" height="100" fill="#271F19" />
<rect x="2400" y="500" width="100" height="100" fill="#271F19" />
<rect x="1400" y="600" width="100" height="100" fill="#271F19" />
<rect x="1500" y="600" width="100" height="100" fill="#271F19" />
<rect x="1600" y="600" width="100" height="100" fill="#271F19" />
<rect x="2300" y="600" width="100" height="100" fill="#271F19" />
<rect x="2400" y="600" width="100" height="100" fill="#271F19" />
<rect x="1400" y="700" width="100" height="100" fill="#271F19" />
<rect x="1500" y="700" width="100" height="100" fill="#B5AA99" />
<rect x="1600" y="700" width="100" height="100" fill="#271F19" />
<rect x="1700" y="700" width="100" height="100" fill="#271F19" />
<rect x="2200" y="700" width="100" height="100" fill="#271F19" />
<rect x="2300" y="700" width="100" height="100" fill="#6D635B" />
<rect x="2400" y="700" width="100" height="100" fill="#B5AA99" />
<rect x="2500" y="700" width="100" height="100" fill="#271F19" />
<rect x="1400" y="800" width="100" height="100" fill="#271F19" />
<rect x="1500" y="800" width="100" height="100" fill="#D0C9B2" />
<rect x="1600" y="800" width="100" height="100" fill="#6D635B" />
<rect x="1700" y="800" width="100" height="100" fill="#271F19" />
<rect x="2200" y="800" width="100" height="100" fill="#271F19" />
<rect x="2300" y="800" width="100" height="100" fill="#6D635B" />
<rect x="2400" y="800" width="100" height="100" fill="#D0C9B2" />
<rect x="2500" y="800" width="100" height="100" fill="#271F19" />
<rect x="1400" y="900" width="100" height="100" fill="#271F19" />
<rect x="1500" y="900" width="100" height="100" fill="#D0C9B2" />
<rect x="1600" y="900" width="100" height="100" fill="#6D635B" />
<rect x="1700" y="900" width="100" height="100" fill="#6D635B" />
<rect x="1800" y="900" width="100" height="100" fill="#271F19" />
<rect x="1900" y="900" width="100" height="100" fill="#271F19" />
<rect x="2000" y="900" width="100" height="100" fill="#271F19" />
<rect x="2100" y="900" width="100" height="100" fill="#271F19" />
<rect x="2200" y="900" width="100" height="100" fill="#271F19" />
<rect x="2300" y="900" width="100" height="100" fill="#6D635B" />
<rect x="2400" y="900" width="100" height="100" fill="#D0C9B2" />
<rect x="2500" y="900" width="100" height="100" fill="#271F19" />
<rect x="1300" y="1000" width="100" height="100" fill="#271F19" />
<rect x="1400" y="1000" width="100" height="100" fill="#D0C9B2" />
<rect x="1500" y="1000" width="100" height="100" fill="#D0C9B2" />
<rect x="1600" y="1000" width="100" height="100" fill="#7C6E65" />
<rect x="1700" y="1000" width="100" height="100" fill="#7C6E65" />
<rect x="1800" y="1000" width="100" height="100" fill="#64584F" />
<rect x="1900" y="1000" width="100" height="100" fill="#271F19" />
<rect x="2000" y="1000" width="100" height="100" fill="#64584F" />
<rect x="2100" y="1000" width="100" height="100" fill="#271F19" />
<rect x="2200" y="1000" width="100" height="100" fill="#64584F" />
<rect x="2300" y="1000" width="100" height="100" fill="#7C6E65" />
<rect x="2400" y="1000" width="100" height="100" fill="#D0C9B2" />
<rect x="2500" y="1000" width="100" height="100" fill="#271F19" />
<rect x="1300" y="1100" width="100" height="100" fill="#271F19" />
<rect x="1400" y="1100" width="100" height="100" fill="#70645C" />
<rect x="1500" y="1100" width="100" height="100" fill="#7C6E65" />
<rect x="1600" y="1100" width="100" height="100" fill="#7C6E65" />
<rect x="1700" y="1100" width="100" height="100" fill="#7C6E65" />
<rect x="1800" y="1100" width="100" height="100" fill="#7C6E65" />
<rect x="1900" y="1100" width="100" height="100" fill="#271F19" />
<rect x="2000" y="1100" width="100" height="100" fill="#7C6E65" />
<rect x="2100" y="1100" width="100" height="100" fill="#271F19" />
<rect x="2200" y="1100" width="100" height="100" fill="#7C6E65" />
<rect x="2300" y="1100" width="100" height="100" fill="#7C6E65" />
<rect x="2400" y="1100" width="100" height="100" fill="#7C6E65" />
<rect x="2500" y="1100" width="100" height="100" fill="#6D635B" />
<rect x="2600" y="1100" width="100" height="100" fill="#271F19" />
<rect x="1200" y="1200" width="100" height="100" fill="#271F19" />
<rect x="1300" y="1200" width="100" height="100" fill="#271F19" />
<rect x="1400" y="1200" width="100" height="100" fill="#271F19" />
<rect x="1500" y="1200" width="100" height="100" fill="#7C6E65" />
<rect x="1600" y="1200" width="100" height="100" fill="#7C6E65" />
<rect x="1700" y="1200" width="100" height="100" fill="#7C6E65" />
<rect x="1800" y="1200" width="100" height="100" fill="#7C6E65" />
<rect x="1900" y="1200" width="100" height="100" fill="#7C6E65" />
<rect x="2000" y="1200" width="100" height="100" fill="#7C6E65" />
<rect x="2100" y="1200" width="100" height="100" fill="#7C6E65" />
<rect x="2200" y="1200" width="100" height="100" fill="#7C6E65" />
<rect x="2300" y="1200" width="100" height="100" fill="#7C6E65" />
<rect x="2400" y="1200" width="100" height="100" fill="#7C6E65" />
<rect x="2500" y="1200" width="100" height="100" fill="#271F19" />
<rect x="2600" y="1200" width="100" height="100" fill="#271F19" />
<rect x="300" y="1300" width="100" height="100" fill="#271F17" />
<rect x="400" y="1300" width="100" height="100" fill="#271F17" />
<rect x="500" y="1300" width="100" height="100" fill="#271F17" />
<rect x="1200" y="1300" width="100" height="100" fill="#271F19" />
<rect x="1300" y="1300" width="100" height="100" fill="#70645A" />
<rect x="1400" y="1300" width="100" height="100" fill="#64584F" />
<rect x="1500" y="1300" width="100" height="100" fill="#70645C" />
<rect x="1600" y="1300" width="100" height="100" fill="#7C6E65" />
<rect x="1700" y="1300" width="100" height="100" fill="#7C6E65" />
<rect x="1800" y="1300" width="100" height="100" fill="#291E17" />
<rect x="1900" y="1300" width="100" height="100" fill="#7C6E65" />
<rect x="2000" y="1300" width="100" height="100" fill="#D0C9B0" />
<rect x="2100" y="1300" width="100" height="100" fill="#7C6E65" />
<rect x="2200" y="1300" width="100" height="100" fill="#291E17" />
<rect x="2300" y="1300" width="100" height="100" fill="#7C6E65" />
<rect x="2400" y="1300" width="100" height="100" fill="#6D635B" />
<rect x="2500" y="1300" width="100" height="100" fill="#64584F" />
<rect x="2600" y="1300" width="100" height="100" fill="#271F19" />
<rect x="300" y="1400" width="100" height="100" fill="#271F17" />
<rect x="400" y="1400" width="100" height="100" fill="#B4A89A" />
<rect x="500" y="1400" width="100" height="100" fill="#271F17" />
<rect x="1200" y="1400" width="100" height="100" fill="#271F19" />
<rect x="1300" y="1400" width="100" height="100" fill="#271F19" />
<rect x="1400" y="1400" width="100" height="100" fill="#271F19" />
<rect x="1500" y="1400" width="100" height="100" fill="#7C6E65" />
<rect x="1600" y="1400" width="100" height="100" fill="#7C6E65" />
<rect x="1700" y="1400" width="100" height="100" fill="#7C6E65" />
<rect x="1800" y="1400" width="100" height="100" fill="#1D1810" />
<rect x="1900" y="1400" width="100" height="100" fill="#D0C9B0" />
<rect x="2000" y="1400" width="100" height="100" fill="#D0C9B0" />
<rect x="2100" y="1400" width="100" height="100" fill="#D0C9B0" />
<rect x="2200" y="1400" width="100" height="100" fill="#1D1810" />
<rect x="2300" y="1400" width="100" height="100" fill="#7C6E65" />
<rect x="2400" y="1400" width="100" height="100" fill="#7C6E65" />
<rect x="2500" y="1400" width="100" height="100" fill="#271F19" />
<rect x="2600" y="1400" width="100" height="100" fill="#271F19" />
<rect x="300" y="1500" width="100" height="100" fill="#271F17" />
<rect x="400" y="1500" width="100" height="100" fill="#D0C8B4" />
<rect x="500" y="1500" width="100" height="100" fill="#271F17" />
<rect x="1000" y="1500" width="100" height="100" fill="#271F17" />
<rect x="1100" y="1500" width="100" height="100" fill="#271F17" />
<rect x="1200" y="1500" width="100" height="100" fill="#271F17" />
<rect x="1300" y="1500" width="100" height="100" fill="#271F19" />
<rect x="1400" y="1500" width="100" height="100" fill="#70645C" />
<rect x="1500" y="1500" width="100" height="100" fill="#7C6E65" />
<rect x="1600" y="1500" width="100" height="100" fill="#7C6E65" />
<rect x="1700" y="1500" width="100" height="100" fill="#7C6E65" />
<rect x="1800" y="1500" width="100" height="100" fill="#090502" />
<rect x="1900" y="1500" width="100" height="100" fill="#D0C9B0" />
<rect x="2000" y="1500" width="100" height="100" fill="#D0C9B0" />
<rect x="2100" y="1500" width="100" height="100" fill="#D0C9B0" />
<rect x="2200" y="1500" width="100" height="100" fill="#090502" />
<rect x="2300" y="1500" width="100" height="100" fill="#7C6E65" />
<rect x="2400" y="1500" width="100" height="100" fill="#7C6E65" />
<rect x="2500" y="1500" width="100" height="100" fill="#6D635B" />
<rect x="2600" y="1500" width="100" height="100" fill="#271F19" />
<rect x="300" y="1600" width="100" height="100" fill="#271F17" />
<rect x="400" y="1600" width="100" height="100" fill="#5B5149" />
<rect x="500" y="1600" width="100" height="100" fill="#7C6E65" />
<rect x="600" y="1600" width="100" height="100" fill="#271F17" />
<rect x="900" y="1600" width="100" height="100" fill="#271F17" />
<rect x="1000" y="1600" width="100" height="100" fill="#B2A998" />
<rect x="1100" y="1600" width="100" height="100" fill="#B2A998" />
<rect x="1200" y="1600" width="100" height="100" fill="#B2A998" />
<rect x="1300" y="1600" width="100" height="100" fill="#271F19" />
<rect x="1400" y="1600" width="100" height="100" fill="#70645C" />
<rect x="1500" y="1600" width="100" height="100" fill="#7C6E65" />
<rect x="1600" y="1600" width="100" height="100" fill="#7C6E65" />
<rect x="1700" y="1600" width="100" height="100" fill="#B4A998" />
<rect x="1800" y="1600" width="100" height="100" fill="#D0C9B0" />
<rect x="1900" y="1600" width="100" height="100" fill="#D0C9B0" />
<rect x="2000" y="1600" width="100" height="100" fill="#E77A7B" />
<rect x="2100" y="1600" width="100" height="100" fill="#D0C9B0" />
<rect x="2200" y="1600" width="100" height="100" fill="#D0C9B0" />
<rect x="2300" y="1600" width="100" height="100" fill="#B4A998" />
<rect x="2400" y="1600" width="100" height="100" fill="#7C6E65" />
<rect x="2500" y="1600" width="100" height="100" fill="#271F19" />
<rect x="400" y="1700" width="100" height="100" fill="#271F17" />
<rect x="500" y="1700" width="100" height="100" fill="#7C6E65" />
<rect x="600" y="1700" width="100" height="100" fill="#5B5149" />
<rect x="700" y="1700" width="100" height="100" fill="#271F17" />
<rect x="800" y="1700" width="100" height="100" fill="#271F17" />
<rect x="900" y="1700" width="100" height="100" fill="#B2A998" />
<rect x="1000" y="1700" width="100" height="100" fill="#D0C9B2" />
<rect x="1100" y="1700" width="100" height="100" fill="#D0C9B2" />
<rect x="1200" y="1700" width="100" height="100" fill="#D0C9B2" />
<rect x="1300" y="1700" width="100" height="100" fill="#B2A998" />
<rect x="1400" y="1700" width="100" height="100" fill="#271F19" />
<rect x="1500" y="1700" width="100" height="100" fill="#70645C" />
<rect x="1600" y="1700" width="100" height="100" fill="#7C6E65" />
<rect x="1700" y="1700" width="100" height="100" fill="#B4A998" />
<rect x="1800" y="1700" width="100" height="100" fill="#B4A998" />
<rect x="1900" y="1700" width="100" height="100" fill="#D0C9B0" />
<rect x="2000" y="1700" width="100" height="100" fill="#D0C9B0" />
<rect x="2100" y="1700" width="100" height="100" fill="#D0C9B0" />
<rect x="2200" y="1700" width="100" height="100" fill="#B4A998" />
<rect x="2300" y="1700" width="100" height="100" fill="#B4A998" />
<rect x="2400" y="1700" width="100" height="100" fill="#271F19" />
<rect x="500" y="1800" width="100" height="100" fill="#271F17" />
<rect x="600" y="1800" width="100" height="100" fill="#5B5149" />
<rect x="700" y="1800" width="100" height="100" fill="#7C6E65" />
<rect x="800" y="1800" width="100" height="100" fill="#271F17" />
<rect x="900" y="1800" width="100" height="100" fill="#D0C9B2" />
<rect x="1000" y="1800" width="100" height="100" fill="#D0C9B2" />
<rect x="1100" y="1800" width="100" height="100" fill="#D0C9B2" />
<rect x="1200" y="1800" width="100" height="100" fill="#D0C9B2" />
<rect x="1300" y="1800" width="100" height="100" fill="#7C6E65" />
<rect x="1400" y="1800" width="100" height="100" fill="#7C6E65" />
<rect x="1500" y="1800" width="100" height="100" fill="#7C6E65" />
<rect x="1600" y="1800" width="100" height="100" fill="#271F19" />
<rect x="1700" y="1800" width="100" height="100" fill="#271F19" />
<rect x="1800" y="1800" width="100" height="100" fill="#271F19" />
<rect x="1900" y="1800" width="100" height="100" fill="#271F19" />
<rect x="2000" y="1800" width="100" height="100" fill="#271F19" />
<rect x="2100" y="1800" width="100" height="100" fill="#271F19" />
<rect x="2200" y="1800" width="100" height="100" fill="#271F19" />
<rect x="2300" y="1800" width="100" height="100" fill="#271F19" />
<rect x="600" y="1900" width="100" height="100" fill="#271F17" />
<rect x="700" y="1900" width="100" height="100" fill="#5B5149" />
<rect x="800" y="1900" width="100" height="100" fill="#271F17" />
<rect x="900" y="1900" width="100" height="100" fill="#7C6E65" />
<rect x="1000" y="1900" width="100" height="100" fill="#D0C9B2" opacity="0.552941" />
<rect x="1100" y="1900" width="100" height="100" fill="#D0C9B2" />
<rect x="1200" y="1900" width="100" height="100" fill="#7C6E65" />
<rect x="1300" y="1900" width="100" height="100" fill="#7C6E65" />
<rect x="1400" y="1900" width="100" height="100" fill="#7C6E65" />
<rect x="1500" y="1900" width="100" height="100" fill="#7C6E65" />
<rect x="1600" y="1900" width="100" height="100" fill="#7C6E65" />
<rect x="1700" y="1900" width="100" height="100" fill="#7C6E65" />
<rect x="1800" y="1900" width="100" height="100" fill="#D0C9B2" />
<rect x="1900" y="1900" width="100" height="100" fill="#D0C9B2" />
<rect x="2000" y="1900" width="100" height="100" fill="#D0C9B2" />
<rect x="2100" y="1900" width="100" height="100" fill="#271F17" />
<rect x="700" y="2000" width="100" height="100" fill="#271F17" />
<rect x="800" y="2000" width="100" height="100" fill="#271F17" />
<rect x="900" y="2000" width="100" height="100" fill="#7C6E65" />
<rect x="1000" y="2000" width="100" height="100" fill="#7C6E65" />
<rect x="1100" y="2000" width="100" height="100" fill="#7C6E65" />
<rect x="1200" y="2000" width="100" height="100" fill="#7C6E65" />
<rect x="1300" y="2000" width="100" height="100" fill="#7C6E65" />
<rect x="1400" y="2000" width="100" height="100" fill="#7C6E65" />
<rect x="1500" y="2000" width="100" height="100" fill="#7C6E65" />
<rect x="1600" y="2000" width="100" height="100" fill="#7C6E65" />
<rect x="1700" y="2000" width="100" height="100" fill="#7C6E65" />
<rect x="1800" y="2000" width="100" height="100" fill="#7C6E65" />
<rect x="1900" y="2000" width="100" height="100" fill="#D0C9B2" />
<rect x="2000" y="2000" width="100" height="100" fill="#D0C9B2" />
<rect x="2100" y="2000" width="100" height="100" fill="#271F17" />
<rect x="800" y="2100" width="100" height="100" fill="#271F17" />
<rect x="900" y="2100" width="100" height="100" fill="#7C6E65" />
<rect x="1000" y="2100" width="100" height="100" fill="#7C6E65" />
<rect x="1100" y="2100" width="100" height="100" fill="#6F625B" />
<rect x="1200" y="2100" width="100" height="100" fill="#7C6E65" />
<rect x="1300" y="2100" width="100" height="100" fill="#7C6E65" />
<rect x="1400" y="2100" width="100" height="100" fill="#7C6E65" />
<rect x="1500" y="2100" width="100" height="100" fill="#7C6E65" />
<rect x="1600" y="2100" width="100" height="100" fill="#7C6E65" />
<rect x="1700" y="2100" width="100" height="100" fill="#5B5149" />
<rect x="1800" y="2100" width="100" height="100" fill="#7C6E65" />
<rect x="1900" y="2100" width="100" height="100" fill="#7C6E65" />
<rect x="2000" y="2100" width="100" height="100" fill="#D0C9B2" />
<rect x="2100" y="2100" width="100" height="100" fill="#271F17" />
<rect x="800" y="2200" width="100" height="100" fill="#271F17" />
<rect x="900" y="2200" width="100" height="100" fill="#5B5149" />
<rect x="1000" y="2200" width="100" height="100" fill="#7C6E65" />
<rect x="1100" y="2200" width="100" height="100" fill="#6F625B" />
<rect x="1200" y="2200" width="100" height="100" fill="#7C6E65" />
<rect x="1300" y="2200" width="100" height="100" fill="#7C6E65" />
<rect x="1400" y="2200" width="100" height="100" fill="#7C6E65" />
<rect x="1500" y="2200" width="100" height="100" fill="#7C6E65" />
<rect x="1600" y="2200" width="100" height="100" fill="#7C6E65" />
<rect x="1700" y="2200" width="100" height="100" fill="#5B5149" />
<rect x="1800" y="2200" width="100" height="100" fill="#271F17" />
<rect x="1900" y="2200" width="100" height="100" fill="#7C6E65" />
<rect x="2000" y="2200" width="100" height="100" fill="#7C6E65" />
<rect x="2100" y="2200" width="100" height="100" fill="#271F17" />
<rect x="800" y="2300" width="100" height="100" fill="#271F17" />
<rect x="900" y="2300" width="100" height="100" fill="#5B5149" />
<rect x="1000" y="2300" width="100" height="100" fill="#7C6E65" />
<rect x="1100" y="2300" width="100" height="100" fill="#5B5149" />
<rect x="1200" y="2300" width="100" height="100" fill="#7C6E65" />
<rect x="1300" y="2300" width="100" height="100" fill="#7C6E65" />
<rect x="1400" y="2300" width="100" height="100" fill="#7C6E65" />
<rect x="1500" y="2300" width="100" height="100" fill="#271F17" />
<rect x="1600" y="2300" width="100" height="100" fill="#7C6E65" />
<rect x="1700" y="2300" width="100" height="100" fill="#5B5149" />
<rect x="1800" y="2300" width="100" height="100" fill="#271F17" />
<rect x="1900" y="2300" width="100" height="100" fill="#6F625B" />
<rect x="2000" y="2300" width="100" height="100" fill="#5B5149" />
<rect x="2100" y="2300" width="100" height="100" fill="#271F17" />
<rect x="800" y="2400" width="100" height="100" fill="#271F17" />
<rect x="900" y="2400" width="100" height="100" fill="#5B5149" />
<rect x="1000" y="2400" width="100" height="100" fill="#5B5149" />
<rect x="1100" y="2400" width="100" height="100" fill="#271F17" />
<rect x="1200" y="2400" width="100" height="100" fill="#271F17" />
<rect x="1300" y="2400" width="100" height="100" fill="#271F17" />
<rect x="1400" y="2400" width="100" height="100" fill="#271F17" />
<rect x="1500" y="2400" width="100" height="100" fill="#271F17" />
<rect x="1600" y="2400" width="100" height="100" fill="#6F625B" />
<rect x="1700" y="2400" width="100" height="100" fill="#5B5149" />
<rect x="1800" y="2400" width="100" height="100" fill="#271F17" />
<rect x="1900" y="2400" width="100" height="100" fill="#271F17" />
<rect x="2000" y="2400" width="100" height="100" fill="#CFC8AF" />
<rect x="2100" y="2400" width="100" height="100" fill="#271F17" />
<rect x="800" y="2500" width="100" height="100" fill="#271F17" />
<rect x="900" y="2500" width="100" height="100" fill="#B2A998" />
<rect x="1000" y="2500" width="100" height="100" fill="#271F17" />
<rect x="1100" y="2500" width="100" height="100" fill="#271F17" />
<rect x="1400" y="2500" width="100" height="100" fill="#271F17" />
<rect x="1500" y="2500" width="100" height="100" fill="#B2A99A" />
<rect x="1600" y="2500" width="100" height="100" fill="#CFC7B1" />
<rect x="1700" y="2500" width="100" height="100" fill="#271F17" />
<rect x="1900" y="2500" width="100" height="100" fill="#271F17" />
<rect x="2000" y="2500" width="100" height="100" fill="#B2A998" />
<rect x="2100" y="2500" width="100" height="100" fill="#271F17" />
<rect x="900" y="2600" width="100" height="100" fill="#271F17" />
<rect x="1000" y="2600" width="100" height="100" fill="#271F17" />
<rect x="1500" y="2600" width="100" height="100" fill="#271F17" />
<rect x="1600" y="2600" width="100" height="100" fill="#271F17" />
<rect x="1900" y="2600" width="100" height="100" fill="#271F17" />
<rect x="2000" y="2600" width="100" height="100" fill="#271F17" />
</svg>